<?xml version="1.0" encoding="UTF-8" standalone="no"?>
<!-- Created with Inkscape (http://www.inkscape.org/) -->

<svg
   xmlns:dc="http://purl.org/dc/elements/1.1/"
   xmlns:cc="http://creativecommons.org/ns#"
   xmlns:rdf="http://www.w3.org/1999/02/22-rdf-syntax-ns#"
   xmlns:svg="http://www.w3.org/2000/svg"
   xmlns="http://www.w3.org/2000/svg"
   xmlns:xlink="http://www.w3.org/1999/xlink"
   xmlns:sodipodi="http://sodipodi.sourceforge.net/DTD/sodipodi-0.dtd"
   xmlns:inkscape="http://www.inkscape.org/namespaces/inkscape"
   width="150"
   height="150"
   id="svg2"
   version="1.1"
   inkscape:version="0.91pre3 r13670"
   viewBox="0 0 150 150"
   sodipodi:docname="tacho_percent_back.svg">
  <defs
     id="defs4">
    <linearGradient
       inkscape:collect="always"
       id="linearGradient4633">
      <stop
         style="stop-color:#e6e6e6;stop-opacity:1;"
         offset="0"
         id="stop4635" />
      <stop
         style="stop-color:#999999;stop-opacity:1"
         offset="1"
         id="stop4637" />
    </linearGradient>
    <linearGradient
       inkscape:collect="always"
       id="linearGradient4620">
      <stop
         style="stop-color:#b3b3b3;stop-opacity:1;"
         offset="0"
         id="stop4622" />
      <stop
         style="stop-color:#b3b3b3;stop-opacity:0;"
         offset="1"
         id="stop4624" />
    </linearGradient>
    <radialGradient
       inkscape:collect="always"
       xlink:href="#linearGradient4620"
       id="radialGradient4626"
       cx="110.27615"
       cy="12.330762"
       fx="110.27615"
       fy="12.330762"
       r="74.998166"
       gradientTransform="matrix(-1.8628953,0.67964205,-0.52439662,-1.4373683,322.17528,-44.829535)"
       gradientUnits="userSpaceOnUse" />
    <linearGradient
       inkscape:collect="always"
       xlink:href="#linearGradient4633"
       id="linearGradient4643"
       x1="80.356987"
       y1="68.492752"
       x2="68.958046"
       y2="80.47979"
       gradientUnits="userSpaceOnUse"
       gradientTransform="matrix(0.94150667,0,0,0.94152267,4.3869559,4.3857232)" />
    <filter
       inkscape:collect="always"
       style="color-interpolation-filters:sRGB"
       id="filter4263"
       x="-0.05507957"
       width="1.1101591"
       y="-0.026737965"
       height="1.0534759">
      <feGaussianBlur
         inkscape:collect="always"
         stdDeviation="0.39862517"
         id="feGaussianBlur4265" />
    </filter>
  </defs>
  <sodipodi:namedview
     id="base"
     pagecolor="#ffffff"
     bordercolor="#666666"
     borderopacity="1.0"
     inkscape:pageopacity="0.0"
     inkscape:pageshadow="2"
     inkscape:zoom="5.2556286"
     inkscape:cx="34.81077"
     inkscape:cy="72.768692"
     inkscape:document-units="px"
     inkscape:current-layer="layer5"
     showgrid="false"
     units="px"
     showguides="false"
     inkscape:window-width="1920"
     inkscape:window-height="1017"
     inkscape:window-x="-8"
     inkscape:window-y="-8"
     inkscape:window-maximized="1" />
  <metadata
     id="metadata7">
    <rdf:RDF>
      <cc:Work
         rdf:about="">
        <dc:format>image/svg+xml</dc:format>
        <dc:type
           rdf:resource="http://purl.org/dc/dcmitype/StillImage" />
        <dc:title />
      </cc:Work>
    </rdf:RDF>
  </metadata>
  <g
     inkscape:groupmode="layer"
     id="layer2"
     inkscape:label="Uhr"
     style="display:inline" />
  <g
     inkscape:groupmode="layer"
     id="layer3"
     inkscape:label="Ziffernblatt" />
  <g
     inkscape:groupmode="layer"
     id="layer5"
     inkscape:label="Ziffern">
    <path
       style="display:inline;opacity:0.75;fill:#282828;fill-opacity:1;stroke:url(#radialGradient4626);stroke-width:4.49399996;stroke-linecap:square;stroke-linejoin:bevel;stroke-miterlimit:4;stroke-dasharray:none;stroke-dashoffset:0;stroke-opacity:1"
       id="path4618"
       sodipodi:type="arc"
       sodipodi:cx="74.999954"
       sodipodi:cy="75.070084"
       sodipodi:rx="72.763588"
       sodipodi:ry="72.685867"
       sodipodi:start="4.0172418"
       sodipodi:end="4.012464"
       d="M 28.394987,19.250286 A 72.763588,72.685867 0 0 1 130.82373,28.448256 72.763588,72.685867 0 0 1 121.73828,130.77851 72.763588,72.685867 0 0 1 19.28783,121.82499 72.763588,72.685867 0 0 1 28.128539,19.473353"
       sodipodi:open="true" />
    <path
       style="display:inline;opacity:0.75;fill:url(#linearGradient4643);fill-opacity:1;stroke:#999999;stroke-width:0.94151461;stroke-linecap:square;stroke-linejoin:bevel;stroke-miterlimit:4;stroke-dasharray:none;stroke-dashoffset:0;stroke-opacity:1"
       id="path4631"
       sodipodi:type="arc"
       sodipodi:cx="74.999954"
       sodipodi:cy="74.999924"
       sodipodi:rx="7.5318813"
       sodipodi:ry="7.5319991"
       sodipodi:start="4.0172418"
       sodipodi:end="4.0124596"
       sodipodi:open="true"
       d="M 70.175796,69.215654 A 7.5318813,7.5319991 0 0 1 80.778362,70.168778 7.5318813,7.5319991 0 0 1 79.837929,80.772642 7.5318813,7.5319991 0 0 1 69.233115,79.844873 7.5318813,7.5319991 0 0 1 70.14819,69.23879" />
    <path
       style="display:inline;fill:#d40000;fill-rule:evenodd;stroke:#000000;stroke-width:0;stroke-linecap:butt;stroke-linejoin:miter;stroke-miterlimit:4;stroke-dasharray:none;stroke-opacity:1;filter:url(#filter4263)"
       d="m 128.27004,104.31786 c 4.05369,-9.895602 6.31749,-18.412239 6.97609,-29.704639 l 10.35162,0 c -0.28964,12.8754 -3.86039,23.940773 -9.22644,35.780599 z"
       id="path4245"
       inkscape:connector-curvature="0"
       sodipodi:nodetypes="ccccc" />
    <rect
       y="131.489"
       x="74.000023"
       height="14.240295"
       width="1.999997"
       id="rect4651"
       style="display:inline;opacity:1;fill:#cccccc;fill-opacity:1;stroke:#999999;stroke-width:0;stroke-linecap:square;stroke-linejoin:bevel;stroke-miterlimit:4;stroke-dasharray:none;stroke-dashoffset:0;stroke-opacity:1"
       inkscape:transform-center-x="-1.380587e-005"
       inkscape:transform-center-y="63.763147" />
    <rect
       transform="matrix(0.8660254,0.5,-0.5,0.8660254,0,0)"
       y="83.961533"
       x="101.37493"
       height="14.240295"
       width="1.999997"
       id="rect4656"
       style="display:inline;opacity:1;fill:#cccccc;fill-opacity:1;stroke:#999999;stroke-width:0;stroke-linecap:square;stroke-linejoin:bevel;stroke-miterlimit:4;stroke-dasharray:none;stroke-dashoffset:0;stroke-opacity:1"
       inkscape:transform-center-x="31.881558"
       inkscape:transform-center-y="55.220514" />
    <rect
       inkscape:transform-center-y="31.881587"
       inkscape:transform-center-x="55.220498"
       style="display:inline;opacity:1;fill:#cccccc;fill-opacity:1;stroke:#999999;stroke-width:0;stroke-linecap:square;stroke-linejoin:bevel;stroke-miterlimit:4;stroke-dasharray:none;stroke-dashoffset:0;stroke-opacity:1"
       id="rect4658"
       width="1.999997"
       height="14.240295"
       x="101.31856"
       y="29.114088"
       transform="matrix(0.5,0.8660254,-0.8660254,0.5,0,0)" />
    <rect
       transform="matrix(0,1,-1,0,0,0)"
       y="-18.357008"
       x="73.846016"
       height="14.240295"
       width="1.999997"
       id="rect4660"
       style="display:inline;opacity:1;fill:#cccccc;fill-opacity:1;stroke:#999999;stroke-width:0;stroke-linecap:square;stroke-linejoin:bevel;stroke-miterlimit:4;stroke-dasharray:none;stroke-dashoffset:0;stroke-opacity:1"
       inkscape:transform-center-x="63.763147"
       inkscape:transform-center-y="1.4955199e-005" />
    <rect
       inkscape:transform-center-y="-31.881561"
       inkscape:transform-center-x="55.220514"
       style="display:inline;opacity:1;fill:#cccccc;fill-opacity:1;stroke:#999999;stroke-width:0;stroke-linecap:square;stroke-linejoin:bevel;stroke-miterlimit:4;stroke-dasharray:none;stroke-dashoffset:0;stroke-opacity:1"
       id="rect4662"
       width="1.999997"
       height="14.240295"
       x="26.31855"
       y="-45.731911"
       transform="matrix(-0.5,0.8660254,-0.8660254,-0.5,0,0)" />
    <rect
       transform="matrix(-0.8660254,0.5,-0.5,-0.8660254,0,0)"
       y="-45.675541"
       x="-28.528894"
       height="14.240295"
       width="1.999997"
       id="rect4664"
       style="display:inline;opacity:1;fill:#cccccc;fill-opacity:1;stroke:#999999;stroke-width:0;stroke-linecap:square;stroke-linejoin:bevel;stroke-miterlimit:4;stroke-dasharray:none;stroke-dashoffset:0;stroke-opacity:1"
       inkscape:transform-center-x="31.881587"
       inkscape:transform-center-y="-55.220498" />
    <rect
       inkscape:transform-center-y="-63.763147"
       inkscape:transform-center-x="1.2844736e-005"
       style="display:inline;opacity:1;fill:#cccccc;fill-opacity:1;stroke:#999999;stroke-width:0;stroke-linecap:square;stroke-linejoin:bevel;stroke-miterlimit:4;stroke-dasharray:none;stroke-dashoffset:0;stroke-opacity:1"
       id="rect4666"
       width="1.999997"
       height="14.240295"
       x="-75.999992"
       y="-18.203001"
       transform="scale(-1,-1)" />
    <rect
       transform="matrix(-0.8660254,-0.5,0.5,-0.8660254,0,0)"
       y="29.324465"
       x="-103.37489"
       height="14.240295"
       width="1.999997"
       id="rect4668"
       style="display:inline;opacity:1;fill:#cccccc;fill-opacity:1;stroke:#999999;stroke-width:0;stroke-linecap:square;stroke-linejoin:bevel;stroke-miterlimit:4;stroke-dasharray:none;stroke-dashoffset:0;stroke-opacity:1"
       inkscape:transform-center-x="-31.881559"
       inkscape:transform-center-y="-55.220513" />
    <rect
       inkscape:transform-center-y="-31.881592"
       inkscape:transform-center-x="-55.220498"
       style="display:inline;opacity:1;fill:#cccccc;fill-opacity:1;stroke:#999999;stroke-width:0;stroke-linecap:square;stroke-linejoin:bevel;stroke-miterlimit:4;stroke-dasharray:none;stroke-dashoffset:0;stroke-opacity:1"
       id="rect4670"
       width="1.999997"
       height="14.240295"
       x="-103.31852"
       y="84.171913"
       transform="matrix(-0.5,-0.8660254,0.8660254,-0.5,0,0)" />
    <rect
       transform="matrix(0,-1,1,0,0,0)"
       y="131.64301"
       x="-75.845978"
       height="14.240295"
       width="1.999997"
       id="rect4672"
       style="display:inline;opacity:1;fill:#cccccc;fill-opacity:1;stroke:#999999;stroke-width:0;stroke-linecap:square;stroke-linejoin:bevel;stroke-miterlimit:4;stroke-dasharray:none;stroke-dashoffset:0;stroke-opacity:1"
       inkscape:transform-center-x="-63.763147"
       inkscape:transform-center-y="-2.044845e-005" />
    <rect
       inkscape:transform-center-y="31.881558"
       inkscape:transform-center-x="-55.220518"
       style="display:inline;opacity:1;fill:#cccccc;fill-opacity:1;stroke:#999999;stroke-width:0;stroke-linecap:square;stroke-linejoin:bevel;stroke-miterlimit:4;stroke-dasharray:none;stroke-dashoffset:0;stroke-opacity:1"
       id="rect4674"
       width="1.999997"
       height="14.240295"
       x="-28.318512"
       y="159.01791"
       transform="matrix(0.5,-0.8660254,0.8660254,0.5,0,0)" />
    <rect
       inkscape:transform-center-y="65.032436"
       inkscape:transform-center-x="6.8351622"
       style="display:inline;opacity:1;fill:#808080;fill-opacity:1;stroke:#999999;stroke-width:0;stroke-linecap:square;stroke-linejoin:bevel;stroke-miterlimit:4;stroke-dasharray:none;stroke-dashoffset:0;stroke-opacity:1"
       id="rect4676"
       width="1.9999983"
       height="10.718534"
       x="81.426651"
       y="126.76038"
       transform="matrix(0.9945219,0.10452846,-0.10452846,0.9945219,0,0)" />
    <rect
       y="117.77891"
       x="87.950188"
       height="10.718534"
       width="1.9999983"
       id="rect4688"
       style="display:inline;opacity:1;fill:#808080;fill-opacity:1;stroke:#999999;stroke-width:0;stroke-linecap:square;stroke-linejoin:bevel;stroke-miterlimit:4;stroke-dasharray:none;stroke-dashoffset:0;stroke-opacity:1"
       inkscape:transform-center-x="13.595462"
       inkscape:transform-center-y="63.961713"
       transform="matrix(0.9781476,0.20791169,-0.20791169,0.9781476,0,0)" />
    <rect
       transform="matrix(0.95105652,0.30901699,-0.30901699,0.95105652,0,0)"
       inkscape:transform-center-y="62.190201"
       inkscape:transform-center-x="20.206801"
       style="display:inline;opacity:1;fill:#808080;fill-opacity:1;stroke:#999999;stroke-width:0;stroke-linecap:square;stroke-linejoin:bevel;stroke-miterlimit:4;stroke-dasharray:none;stroke-dashoffset:0;stroke-opacity:1"
       id="rect4690"
       width="1.9999983"
       height="10.718534"
       x="93.499168"
       y="108.16473" />
    <rect
       y="98.023193"
       x="98.012794"
       height="10.718534"
       width="1.9999983"
       id="rect4692"
       style="display:inline;opacity:1;fill:#808080;fill-opacity:1;stroke:#999999;stroke-width:0;stroke-linecap:square;stroke-linejoin:bevel;stroke-miterlimit:4;stroke-dasharray:none;stroke-dashoffset:0;stroke-opacity:1"
       inkscape:transform-center-x="26.596754"
       inkscape:transform-center-y="59.737327"
       transform="matrix(0.91354546,0.40673664,-0.40673664,0.91354546,0,0)" />
    <rect
       transform="matrix(0.809017,0.58778525,-0.58778525,0.809017,0,0)"
       inkscape:transform-center-y="52.902143"
       inkscape:transform-center-x="38.435639"
       style="display:inline;opacity:1;fill:#808080;fill-opacity:1;stroke:#999999;stroke-width:0;stroke-linecap:square;stroke-linejoin:bevel;stroke-miterlimit:4;stroke-dasharray:none;stroke-dashoffset:0;stroke-opacity:1"
       id="rect4694"
       width="1.9999983"
       height="10.718534"
       x="103.74807"
       y="76.607063" />
    <rect
       y="65.567108"
       x="104.90688"
       height="10.718534"
       width="1.9999983"
       id="rect4696"
       style="display:inline;opacity:1;fill:#808080;fill-opacity:1;stroke:#999999;stroke-width:0;stroke-linecap:square;stroke-linejoin:bevel;stroke-miterlimit:4;stroke-dasharray:none;stroke-dashoffset:0;stroke-opacity:1"
       inkscape:transform-center-x="43.754863"
       inkscape:transform-center-y="48.594723"
       transform="matrix(0.74314483,0.6691306,-0.6691306,0.74314483,0,0)" />
    <rect
       transform="matrix(0.66913061,0.74314482,-0.74314482,0.66913061,0,0)"
       inkscape:transform-center-y="43.754887"
       inkscape:transform-center-x="48.5947"
       style="display:inline;opacity:1;fill:#808080;fill-opacity:1;stroke:#999999;stroke-width:0;stroke-linecap:square;stroke-linejoin:bevel;stroke-miterlimit:4;stroke-dasharray:none;stroke-dashoffset:0;stroke-opacity:1"
       id="rect4698"
       width="1.9999983"
       height="10.718534"
       x="104.90536"
       y="54.466499" />
    <rect
       y="43.426861"
       x="103.74351"
       height="10.718534"
       width="1.9999983"
       id="rect4700"
       style="display:inline;opacity:1;fill:#808080;fill-opacity:1;stroke:#999999;stroke-width:0;stroke-linecap:square;stroke-linejoin:bevel;stroke-miterlimit:4;stroke-dasharray:none;stroke-dashoffset:0;stroke-opacity:1"
       inkscape:transform-center-x="52.902125"
       inkscape:transform-center-y="38.435662"
       transform="matrix(0.58778526,0.80901699,-0.80901699,0.58778526,0,0)" />
    <rect
       transform="matrix(0.40673665,0.91354545,-0.91354545,0.40673665,0,0)"
       inkscape:transform-center-y="26.596781"
       inkscape:transform-center-x="59.737308"
       style="display:inline;opacity:1;fill:#808080;fill-opacity:1;stroke:#999999;stroke-width:0;stroke-linecap:square;stroke-linejoin:bevel;stroke-miterlimit:4;stroke-dasharray:none;stroke-dashoffset:0;stroke-opacity:1"
       id="rect4702"
       width="1.9999983"
       height="10.718534"
       x="98.002342"
       y="22.012312" />
    <rect
       y="11.872024"
       x="93.485924"
       height="10.718534"
       width="1.9999983"
       id="rect4704"
       style="display:inline;opacity:1;fill:#808080;fill-opacity:1;stroke:#999999;stroke-width:0;stroke-linecap:square;stroke-linejoin:bevel;stroke-miterlimit:4;stroke-dasharray:none;stroke-dashoffset:0;stroke-opacity:1"
       inkscape:transform-center-x="62.190182"
       inkscape:transform-center-y="20.206832"
       transform="matrix(0.309017,0.95105651,-0.95105651,0.309017,0,0)" />
    <rect
       transform="matrix(0.2079117,0.9781476,-0.9781476,0.2079117,0,0)"
       inkscape:transform-center-y="13.595491"
       inkscape:transform-center-x="63.961687"
       style="display:inline;opacity:1;fill:#808080;fill-opacity:1;stroke:#999999;stroke-width:0;stroke-linecap:square;stroke-linejoin:bevel;stroke-miterlimit:4;stroke-dasharray:none;stroke-dashoffset:0;stroke-opacity:1"
       id="rect4706"
       width="1.9999983"
       height="10.718534"
       x="87.934296"
       y="2.2593789" />
    <rect
       y="-6.720304"
       x="81.408287"
       height="10.718534"
       width="1.9999983"
       id="rect4708"
       style="display:inline;opacity:1;fill:#808080;fill-opacity:1;stroke:#999999;stroke-width:0;stroke-linecap:square;stroke-linejoin:bevel;stroke-miterlimit:4;stroke-dasharray:none;stroke-dashoffset:0;stroke-opacity:1"
       inkscape:transform-center-x="65.032414"
       inkscape:transform-center-y="6.8351958"
       transform="matrix(0.10452847,0.99452189,-0.99452189,0.10452847,0,0)" />
    <rect
       transform="matrix(-0.10452846,0.9945219,-0.9945219,-0.10452846,0,0)"
       inkscape:transform-center-y="-6.8351727"
       inkscape:transform-center-x="65.032416"
       style="display:inline;opacity:1;fill:#808080;fill-opacity:1;stroke:#999999;stroke-width:0;stroke-linecap:square;stroke-linejoin:bevel;stroke-miterlimit:4;stroke-dasharray:none;stroke-dashoffset:0;stroke-opacity:1"
       id="rect4710"
       width="1.9999983"
       height="10.718534"
       x="65.729012"
       y="-22.395264" />
    <rect
       y="-28.918802"
       x="56.747536"
       height="10.718534"
       width="1.9999983"
       id="rect4712"
       style="display:inline;opacity:1;fill:#808080;fill-opacity:1;stroke:#999999;stroke-width:0;stroke-linecap:square;stroke-linejoin:bevel;stroke-miterlimit:4;stroke-dasharray:none;stroke-dashoffset:0;stroke-opacity:1"
       inkscape:transform-center-x="63.961692"
       inkscape:transform-center-y="-13.595466"
       transform="matrix(-0.20791169,0.9781476,-0.9781476,-0.20791169,0,0)" />
    <rect
       transform="matrix(-0.30901699,0.95105652,-0.95105652,-0.30901699,0,0)"
       inkscape:transform-center-y="-20.206804"
       inkscape:transform-center-x="62.190189"
       style="display:inline;opacity:1;fill:#808080;fill-opacity:1;stroke:#999999;stroke-width:0;stroke-linecap:square;stroke-linejoin:bevel;stroke-miterlimit:4;stroke-dasharray:none;stroke-dashoffset:0;stroke-opacity:1"
       id="rect4714"
       width="1.9999983"
       height="10.718534"
       x="47.133366"
       y="-34.467785" />
    <rect
       y="-38.981415"
       x="36.991837"
       height="10.718534"
       width="1.9999983"
       id="rect4716"
       style="display:inline;opacity:1;fill:#808080;fill-opacity:1;stroke:#999999;stroke-width:0;stroke-linecap:square;stroke-linejoin:bevel;stroke-miterlimit:4;stroke-dasharray:none;stroke-dashoffset:0;stroke-opacity:1"
       inkscape:transform-center-x="59.737318"
       inkscape:transform-center-y="-26.596753"
       transform="matrix(-0.40673664,0.91354546,-0.91354546,-0.40673664,0,0)" />
    <rect
       transform="matrix(-0.58778525,0.809017,-0.809017,-0.58778525,0,0)"
       inkscape:transform-center-y="-38.435636"
       inkscape:transform-center-x="52.902137"
       style="display:inline;opacity:1;fill:#808080;fill-opacity:1;stroke:#999999;stroke-width:0;stroke-linecap:square;stroke-linejoin:bevel;stroke-miterlimit:4;stroke-dasharray:none;stroke-dashoffset:0;stroke-opacity:1"
       id="rect4718"
       width="1.9999983"
       height="10.718534"
       x="15.575709"
       y="-44.716694" />
    <rect
       y="-45.875504"
       x="4.5357528"
       height="10.718534"
       width="1.9999983"
       id="rect4720"
       style="display:inline;opacity:1;fill:#808080;fill-opacity:1;stroke:#999999;stroke-width:0;stroke-linecap:square;stroke-linejoin:bevel;stroke-miterlimit:4;stroke-dasharray:none;stroke-dashoffset:0;stroke-opacity:1"
       inkscape:transform-center-x="48.594717"
       inkscape:transform-center-y="-43.754862"
       transform="matrix(-0.6691306,0.74314483,-0.74314483,-0.6691306,0,0)" />
    <rect
       transform="matrix(-0.74314482,0.66913061,-0.66913061,-0.74314482,0,0)"
       inkscape:transform-center-y="-48.594699"
       inkscape:transform-center-x="43.754881"
       style="display:inline;opacity:1;fill:#808080;fill-opacity:1;stroke:#999999;stroke-width:0;stroke-linecap:square;stroke-linejoin:bevel;stroke-miterlimit:4;stroke-dasharray:none;stroke-dashoffset:0;stroke-opacity:1"
       id="rect4722"
       width="1.9999983"
       height="10.718534"
       x="-6.5648546"
       y="-45.873978" />
    <rect
       y="-44.712132"
       x="-17.604492"
       height="10.718534"
       width="1.9999983"
       id="rect4724"
       style="display:inline;opacity:1;fill:#808080;fill-opacity:1;stroke:#999999;stroke-width:0;stroke-linecap:square;stroke-linejoin:bevel;stroke-miterlimit:4;stroke-dasharray:none;stroke-dashoffset:0;stroke-opacity:1"
       inkscape:transform-center-x="38.435657"
       inkscape:transform-center-y="-52.902122"
       transform="matrix(-0.80901699,0.58778526,-0.58778526,-0.80901699,0,0)" />
    <rect
       transform="matrix(-0.91354545,0.40673665,-0.40673665,-0.91354545,0,0)"
       inkscape:transform-center-y="-59.737308"
       inkscape:transform-center-x="26.596775"
       style="display:inline;opacity:1;fill:#808080;fill-opacity:1;stroke:#999999;stroke-width:0;stroke-linecap:square;stroke-linejoin:bevel;stroke-miterlimit:4;stroke-dasharray:none;stroke-dashoffset:0;stroke-opacity:1"
       id="rect4726"
       width="1.9999983"
       height="10.718534"
       x="-39.019043"
       y="-38.970963" />
    <rect
       y="-34.454544"
       x="-49.159332"
       height="10.718534"
       width="1.9999983"
       id="rect4728"
       style="display:inline;opacity:1;fill:#808080;fill-opacity:1;stroke:#999999;stroke-width:0;stroke-linecap:square;stroke-linejoin:bevel;stroke-miterlimit:4;stroke-dasharray:none;stroke-dashoffset:0;stroke-opacity:1"
       inkscape:transform-center-x="20.206825"
       inkscape:transform-center-y="-62.190181"
       transform="matrix(-0.95105651,0.309017,-0.309017,-0.95105651,0,0)" />
    <rect
       transform="matrix(-0.9781476,0.2079117,-0.2079117,-0.9781476,0,0)"
       inkscape:transform-center-y="-63.961685"
       inkscape:transform-center-x="13.595486"
       style="display:inline;opacity:1;fill:#808080;fill-opacity:1;stroke:#999999;stroke-width:0;stroke-linecap:square;stroke-linejoin:bevel;stroke-miterlimit:4;stroke-dasharray:none;stroke-dashoffset:0;stroke-opacity:1"
       id="rect4730"
       width="1.9999983"
       height="10.718534"
       x="-58.771976"
       y="-28.902918" />
    <rect
       y="-22.376909"
       x="-67.751656"
       height="10.718534"
       width="1.9999983"
       id="rect4732"
       style="display:inline;opacity:1;fill:#808080;fill-opacity:1;stroke:#999999;stroke-width:0;stroke-linecap:square;stroke-linejoin:bevel;stroke-miterlimit:4;stroke-dasharray:none;stroke-dashoffset:0;stroke-opacity:1"
       inkscape:transform-center-x="6.8351958"
       inkscape:transform-center-y="-65.032411"
       transform="matrix(-0.99452189,0.10452847,-0.10452847,-0.99452189,0,0)" />
    <rect
       transform="matrix(-0.9781476,-0.20791169,0.20791169,-0.9781476,0,0)"
       inkscape:transform-center-y="-63.961689"
       inkscape:transform-center-x="-13.59546"
       style="display:inline;opacity:1;fill:#808080;fill-opacity:1;stroke:#999999;stroke-width:0;stroke-linecap:square;stroke-linejoin:bevel;stroke-miterlimit:4;stroke-dasharray:none;stroke-dashoffset:0;stroke-opacity:1"
       id="rect4734"
       width="1.9999983"
       height="10.718534"
       x="-89.95015"
       y="2.2838387" />
    <rect
       y="-6.6976385"
       x="-83.426613"
       height="10.718534"
       width="1.9999983"
       id="rect4736"
       style="display:inline;opacity:1;fill:#808080;fill-opacity:1;stroke:#999999;stroke-width:0;stroke-linecap:square;stroke-linejoin:bevel;stroke-miterlimit:4;stroke-dasharray:none;stroke-dashoffset:0;stroke-opacity:1"
       inkscape:transform-center-x="-6.8351672"
       inkscape:transform-center-y="-65.032413"
       transform="matrix(-0.9945219,-0.10452846,0.10452846,-0.9945219,0,0)" />
    <rect
       y="11.89801"
       x="-95.49913"
       height="10.718534"
       width="1.9999983"
       id="rect4738"
       style="display:inline;opacity:1;fill:#808080;fill-opacity:1;stroke:#999999;stroke-width:0;stroke-linecap:square;stroke-linejoin:bevel;stroke-miterlimit:4;stroke-dasharray:none;stroke-dashoffset:0;stroke-opacity:1"
       inkscape:transform-center-x="-20.2068"
       inkscape:transform-center-y="-62.190189"
       transform="matrix(-0.95105652,-0.30901699,0.30901699,-0.95105652,0,0)" />
    <rect
       transform="matrix(-0.91354546,-0.40673664,0.40673664,-0.91354546,0,0)"
       inkscape:transform-center-y="-59.737321"
       inkscape:transform-center-x="-26.596747"
       style="display:inline;opacity:1;fill:#808080;fill-opacity:1;stroke:#999999;stroke-width:0;stroke-linecap:square;stroke-linejoin:bevel;stroke-miterlimit:4;stroke-dasharray:none;stroke-dashoffset:0;stroke-opacity:1"
       id="rect4740"
       width="1.9999983"
       height="10.718534"
       x="-100.01276"
       y="22.039541" />
    <rect
       y="54.495621"
       x="-106.90685"
       height="10.718534"
       width="1.9999983"
       id="rect4742"
       style="display:inline;opacity:1;fill:#808080;fill-opacity:1;stroke:#999999;stroke-width:0;stroke-linecap:square;stroke-linejoin:bevel;stroke-miterlimit:4;stroke-dasharray:none;stroke-dashoffset:0;stroke-opacity:1"
       inkscape:transform-center-x="-43.75486"
       inkscape:transform-center-y="-48.594714"
       transform="matrix(-0.74314483,-0.6691306,0.6691306,-0.74314483,0,0)" />
    <rect
       transform="matrix(-0.809017,-0.58778525,0.58778525,-0.809017,0,0)"
       inkscape:transform-center-y="-52.902142"
       inkscape:transform-center-x="-38.435629"
       style="display:inline;opacity:1;fill:#808080;fill-opacity:1;stroke:#999999;stroke-width:0;stroke-linecap:square;stroke-linejoin:bevel;stroke-miterlimit:4;stroke-dasharray:none;stroke-dashoffset:0;stroke-opacity:1"
       id="rect4744"
       width="1.9999983"
       height="10.718534"
       x="-105.74803"
       y="43.455666" />
    <rect
       transform="matrix(-0.66913061,-0.74314482,0.74314482,-0.66913061,0,0)"
       inkscape:transform-center-y="-43.754879"
       inkscape:transform-center-x="-48.594699"
       style="display:inline;opacity:1;fill:#808080;fill-opacity:1;stroke:#999999;stroke-width:0;stroke-linecap:square;stroke-linejoin:bevel;stroke-miterlimit:4;stroke-dasharray:none;stroke-dashoffset:0;stroke-opacity:1"
       id="rect4746"
       width="1.9999983"
       height="10.718534"
       x="-106.90533"
       y="65.59623" />
    <rect
       y="76.635864"
       x="-105.74348"
       height="10.718534"
       width="1.9999983"
       id="rect4748"
       style="display:inline;opacity:1;fill:#808080;fill-opacity:1;stroke:#999999;stroke-width:0;stroke-linecap:square;stroke-linejoin:bevel;stroke-miterlimit:4;stroke-dasharray:none;stroke-dashoffset:0;stroke-opacity:1"
       inkscape:transform-center-x="-52.902119"
       inkscape:transform-center-y="-38.435656"
       transform="matrix(-0.58778526,-0.80901699,0.80901699,-0.58778526,0,0)" />
    <rect
       transform="matrix(-0.40673665,-0.91354545,0.91354545,-0.40673665,0,0)"
       inkscape:transform-center-y="-26.596772"
       inkscape:transform-center-x="-59.737299"
       style="display:inline;opacity:1;fill:#808080;fill-opacity:1;stroke:#999999;stroke-width:0;stroke-linecap:square;stroke-linejoin:bevel;stroke-miterlimit:4;stroke-dasharray:none;stroke-dashoffset:0;stroke-opacity:1"
       id="rect4750"
       width="1.9999983"
       height="10.718534"
       x="-100.00231"
       y="98.050407" />
    <rect
       y="108.1907"
       x="-95.485893"
       height="10.718534"
       width="1.9999983"
       id="rect4752"
       style="display:inline;opacity:1;fill:#808080;fill-opacity:1;stroke:#999999;stroke-width:0;stroke-linecap:square;stroke-linejoin:bevel;stroke-miterlimit:4;stroke-dasharray:none;stroke-dashoffset:0;stroke-opacity:1"
       inkscape:transform-center-x="-62.190172"
       inkscape:transform-center-y="-20.206824"
       transform="matrix(-0.309017,-0.95105651,0.95105651,-0.309017,0,0)" />
    <rect
       transform="matrix(-0.2079117,-0.9781476,0.9781476,-0.2079117,0,0)"
       inkscape:transform-center-y="-13.595487"
       inkscape:transform-center-x="-63.961672"
       style="display:inline;opacity:1;fill:#808080;fill-opacity:1;stroke:#999999;stroke-width:0;stroke-linecap:square;stroke-linejoin:bevel;stroke-miterlimit:4;stroke-dasharray:none;stroke-dashoffset:0;stroke-opacity:1"
       id="rect4754"
       width="1.9999983"
       height="10.718534"
       x="-89.934265"
       y="117.80334" />
    <rect
       y="126.78302"
       x="-83.408257"
       height="10.718534"
       width="1.9999983"
       id="rect4756"
       style="display:inline;opacity:1;fill:#808080;fill-opacity:1;stroke:#999999;stroke-width:0;stroke-linecap:square;stroke-linejoin:bevel;stroke-miterlimit:4;stroke-dasharray:none;stroke-dashoffset:0;stroke-opacity:1"
       inkscape:transform-center-x="-65.032398"
       inkscape:transform-center-y="-6.8351946"
       transform="matrix(-0.10452847,-0.99452189,0.99452189,-0.10452847,0,0)" />
    <rect
       transform="matrix(0.10452846,-0.9945219,0.9945219,0.10452846,0,0)"
       inkscape:transform-center-y="6.8351634"
       inkscape:transform-center-x="-65.032401"
       style="display:inline;opacity:1;fill:#808080;fill-opacity:1;stroke:#999999;stroke-width:0;stroke-linecap:square;stroke-linejoin:bevel;stroke-miterlimit:4;stroke-dasharray:none;stroke-dashoffset:0;stroke-opacity:1"
       id="rect4758"
       width="1.9999983"
       height="10.718534"
       x="-67.728981"
       y="142.45798" />
    <rect
       y="148.98152"
       x="-58.747505"
       height="10.718534"
       width="1.9999983"
       id="rect4760"
       style="display:inline;opacity:1;fill:#808080;fill-opacity:1;stroke:#999999;stroke-width:0;stroke-linecap:square;stroke-linejoin:bevel;stroke-miterlimit:4;stroke-dasharray:none;stroke-dashoffset:0;stroke-opacity:1"
       inkscape:transform-center-x="-63.961682"
       inkscape:transform-center-y="13.595459"
       transform="matrix(0.20791169,-0.9781476,0.9781476,0.20791169,0,0)" />
    <rect
       transform="matrix(0.30901699,-0.95105652,0.95105652,0.30901699,0,0)"
       inkscape:transform-center-y="20.206799"
       inkscape:transform-center-x="-62.190181"
       style="display:inline;opacity:1;fill:#808080;fill-opacity:1;stroke:#999999;stroke-width:0;stroke-linecap:square;stroke-linejoin:bevel;stroke-miterlimit:4;stroke-dasharray:none;stroke-dashoffset:0;stroke-opacity:1"
       id="rect4762"
       width="1.9999983"
       height="10.718534"
       x="-49.133335"
       y="154.5305" />
    <rect
       y="159.04413"
       x="-38.991806"
       height="10.718534"
       width="1.9999983"
       id="rect4764"
       style="display:inline;opacity:1;fill:#808080;fill-opacity:1;stroke:#999999;stroke-width:0;stroke-linecap:square;stroke-linejoin:bevel;stroke-miterlimit:4;stroke-dasharray:none;stroke-dashoffset:0;stroke-opacity:1"
       inkscape:transform-center-x="-59.737308"
       inkscape:transform-center-y="26.596748"
       transform="matrix(0.40673664,-0.91354546,0.91354546,0.40673664,0,0)" />
    <g
       style="font-style:normal;font-variant:normal;font-weight:normal;font-stretch:normal;font-size:22.5px;line-height:125%;font-family:DS-Digital;-inkscape-font-specification:'DS-Digital, Normal';text-align:start;letter-spacing:0px;word-spacing:0px;writing-mode:lr-tb;text-anchor:start;fill:#008000;fill-opacity:1;stroke:none;stroke-width:1px;stroke-linecap:butt;stroke-linejoin:miter;stroke-opacity:1"
       id="text4769">
      <path
         inkscape:connector-curvature="0"
         d="m 79.220289,121.62794 -0.552273,0.57272 -0.961363,-0.96136 0,-4.09091 1.513636,-1.53409 0,6.01364 z m -0.286364,-6.3 -1.513636,1.53409 -4.970455,0 -1.513636,-1.53409 7.997727,0 z m -6.75,5.91136 -0.961363,0.96136 -0.572728,-0.57272 0,-6.01364 1.534091,1.53409 0,4.09091 z m 7.036364,8.12045 -1.513636,-1.53409 0,-4.09091 0.961363,-0.96136 0.552273,0.59318 0,5.99318 z m -0.286364,0.28637 -7.997727,0 1.513636,-1.53409 4.970455,0 1.513636,1.53409 z m -6.75,-1.82046 -1.534091,1.53409 0,-5.99318 0.572728,-0.59318 0.961363,0.96136 0,4.09091 z"
         style="font-style:normal;font-variant:normal;font-weight:normal;font-stretch:normal;font-size:22.5px;line-height:125%;font-family:DS-Digital;-inkscape-font-specification:'DS-Digital, Normal';text-align:start;writing-mode:lr-tb;text-anchor:start;fill:#008000"
         id="path4320" />
    </g>
    <g
       style="font-style:normal;font-variant:normal;font-weight:normal;font-stretch:normal;font-size:22.5px;line-height:125%;font-family:DS-Digital;-inkscape-font-specification:'DS-Digital, Normal';text-align:start;letter-spacing:0px;word-spacing:0px;writing-mode:lr-tb;text-anchor:start;fill:#008000;fill-opacity:1;stroke:none;stroke-width:1px;stroke-linecap:butt;stroke-linejoin:miter;stroke-opacity:1"
       id="text4769-3">
      <path
         inkscape:connector-curvature="0"
         d="m 37.914632,95.356821 -1.513636,1.534091 -4.970454,0 -1.513637,-1.534091 7.997727,0 z m 0,14.318179 -7.997727,0 1.513637,-1.53409 4.970454,0 1.513636,1.53409 z m -6.75,-5.91136 0,4.09091 -1.53409,1.53409 0,-5.99318 0.572727,-0.59318 0.961363,0.96136 z m 5.522728,-2.49546 0,-4.090904 1.513636,-1.534091 0,6.013635 -0.552273,0.57273 -0.961363,-0.96137 z m -0.102273,0.49091 0.777273,0.75682 -0.777273,0.75682 -5.338636,0 -0.756819,-0.75682 0.756819,-0.75682 5.338636,0 z"
         style="font-style:normal;font-variant:normal;font-weight:normal;font-stretch:normal;font-size:22.5px;line-height:125%;font-family:DS-Digital;-inkscape-font-specification:'DS-Digital, Normal';text-align:start;writing-mode:lr-tb;text-anchor:start;fill:#008000"
         id="path4323" />
      <path
         inkscape:connector-curvature="0"
         d="m 49.23127,101.65682 -0.552273,0.57273 -0.961364,-0.96137 0,-4.090904 1.513637,-1.534091 0,6.013635 z m -0.286364,-6.299999 -1.513636,1.534091 -4.970455,0 -1.513636,-1.534091 7.997727,0 z m -6.75,5.911359 -0.961364,0.96137 -0.572727,-0.57273 0,-6.013635 1.534091,1.534091 0,4.090904 z m 7.036364,8.12046 -1.513637,-1.53409 0,-4.09091 0.961364,-0.96136 0.552273,0.59318 0,5.99318 z m -0.286364,0.28636 -7.997727,0 1.513636,-1.53409 4.970455,0 1.513636,1.53409 z m -6.75,-1.82045 -1.534091,1.53409 0,-5.99318 0.572727,-0.59318 0.961364,0.96136 0,4.09091 z"
         style="font-style:normal;font-variant:normal;font-weight:normal;font-stretch:normal;font-size:22.5px;line-height:125%;font-family:DS-Digital;-inkscape-font-specification:'DS-Digital, Normal';text-align:start;writing-mode:lr-tb;text-anchor:start;fill:#008000"
         id="path4325" />
    </g>
    <g
       style="font-style:normal;font-variant:normal;font-weight:normal;font-stretch:normal;font-size:22.5px;line-height:125%;font-family:DS-Digital;-inkscape-font-specification:'DS-Digital, Normal';text-align:start;letter-spacing:0px;word-spacing:0px;writing-mode:lr-tb;text-anchor:start;fill:#008000;fill-opacity:1;stroke:none;stroke-width:1px;stroke-linecap:butt;stroke-linejoin:miter;stroke-opacity:1"
       id="text4769-3-3">
      <path
         inkscape:connector-curvature="0"
         d="m 26.856,53.196818 0,-6.013636 1.534091,1.534091 0,4.090909 -0.961364,0.961364 L 26.856,53.196818 Z m 8.570454,1.738637 0,5.993182 -1.513636,-1.534091 0,-4.090909 0.961364,-0.961364 0.552272,0.593182 z m -1.513636,-2.127273 0,-4.090909 1.513636,-1.534091 0,6.013636 -0.552272,0.572728 -0.961364,-0.961364 z m -0.102273,0.490909 0.777273,0.756818 -0.777273,0.756818 -5.338636,0 -0.756818,-0.756818 0.756818,-0.756818 5.338636,0 z"
         style="font-style:normal;font-variant:normal;font-weight:normal;font-stretch:normal;font-size:22.5px;line-height:125%;font-family:DS-Digital;-inkscape-font-specification:'DS-Digital, Normal';text-align:start;writing-mode:lr-tb;text-anchor:start;fill:#008000"
         id="path4328" />
      <path
         inkscape:connector-curvature="0"
         d="m 46.456728,53.196818 -0.552273,0.572728 -0.961364,-0.961364 0,-4.090909 1.513637,-1.534091 0,6.013636 z m -0.286364,-6.3 -1.513636,1.534091 -4.970455,0 -1.513636,-1.534091 7.997727,0 z m -6.75,5.911364 -0.961364,0.961364 -0.572727,-0.572728 0,-6.013636 1.534091,1.534091 0,4.090909 z m 7.036364,8.120455 -1.513637,-1.534091 0,-4.090909 0.961364,-0.961364 0.552273,0.593182 0,5.993182 z m -0.286364,0.286363 -7.997727,0 1.513636,-1.534091 4.970455,0 1.513636,1.534091 z m -6.75,-1.820454 -1.534091,1.534091 0,-5.993182 0.572727,-0.593182 0.961364,0.961364 0,4.090909 z"
         style="font-style:normal;font-variant:normal;font-weight:normal;font-stretch:normal;font-size:22.5px;line-height:125%;font-family:DS-Digital;-inkscape-font-specification:'DS-Digital, Normal';text-align:start;writing-mode:lr-tb;text-anchor:start;fill:#008000"
         id="path4330" />
    </g>
    <g
       style="font-style:normal;font-variant:normal;font-weight:normal;font-stretch:normal;font-size:22.5px;line-height:125%;font-family:DS-Digital;-inkscape-font-specification:'DS-Digital, Normal';text-align:start;letter-spacing:0px;word-spacing:0px;writing-mode:lr-tb;text-anchor:start;fill:#ffff00;fill-opacity:1;stroke:none;stroke-width:1px;stroke-linecap:butt;stroke-linejoin:miter;stroke-opacity:1"
       id="text4769-3-3-0">
      <path
         inkscape:connector-curvature="0"
         d="m 73.37281,20.752955 -1.513636,1.534091 -4.970455,0 -1.513636,-1.534091 7.997727,0 z m 0,14.318181 -7.997727,0 1.513636,-1.53409 4.970455,0 1.513636,1.53409 z m -6.75,-5.911363 0,4.090909 -1.534091,1.534091 0,-5.993182 0.572727,-0.593182 0.961364,0.961364 z m -1.534091,-2.106818 0,-6.013637 1.534091,1.534091 0,4.090909 -0.961364,0.961364 -0.572727,-0.572727 z m 8.570455,1.738636 0,5.993182 -1.513637,-1.534091 0,-4.090909 0.961364,-0.961364 0.552273,0.593182 z m -1.615909,-1.636364 0.777272,0.756819 -0.777272,0.756818 -5.338637,0 -0.756818,-0.756818 0.756818,-0.756819 5.338637,0 z"
         style="font-style:normal;font-variant:normal;font-weight:normal;font-stretch:normal;font-size:22.5px;line-height:125%;font-family:DS-Digital;-inkscape-font-specification:'DS-Digital, Normal';text-align:start;writing-mode:lr-tb;text-anchor:start;fill:#ffff00"
         id="path4333" />
      <path
         inkscape:connector-curvature="0"
         d="m 84.689447,27.052955 -0.552273,0.572727 -0.961363,-0.961364 0,-4.090909 1.513636,-1.534091 0,6.013637 z m -0.286364,-6.3 -1.513636,1.534091 -4.970454,0 -1.513637,-1.534091 7.997727,0 z m -6.75,5.911363 -0.961363,0.961364 -0.572727,-0.572727 0,-6.013637 1.53409,1.534091 0,4.090909 z m 7.036364,8.120455 -1.513636,-1.534091 0,-4.090909 0.961363,-0.961364 0.552273,0.593182 0,5.993182 z m -0.286364,0.286363 -7.997727,0 1.513637,-1.53409 4.970454,0 1.513636,1.53409 z m -6.75,-1.820454 -1.53409,1.534091 0,-5.993182 0.572727,-0.593182 0.961363,0.961364 0,4.090909 z"
         style="font-style:normal;font-variant:normal;font-weight:normal;font-stretch:normal;font-size:22.5px;line-height:125%;font-family:DS-Digital;-inkscape-font-specification:'DS-Digital, Normal';text-align:start;writing-mode:lr-tb;text-anchor:start;fill:#ffff00"
         id="path4335" />
    </g>
    <g
       style="font-style:normal;font-variant:normal;font-weight:normal;font-stretch:normal;font-size:22.5px;line-height:125%;font-family:DS-Digital;-inkscape-font-specification:'DS-Digital, Normal';text-align:start;letter-spacing:0px;word-spacing:0px;writing-mode:lr-tb;text-anchor:start;fill:#ffff00;fill-opacity:1;stroke:none;stroke-width:1px;stroke-linecap:butt;stroke-linejoin:miter;stroke-opacity:1"
       id="text4769-3-3-0-9">
      <path
         inkscape:connector-curvature="0"
         d="m 110.77677,46.948088 -1.51364,1.534091 -4.97045,0 -1.51364,-1.534091 7.99773,0 z m 0,14.318182 -7.99773,0 1.51364,-1.534091 4.97045,0 1.51364,1.534091 z m -6.75,-5.911364 0,4.090909 -1.53409,1.534091 0,-5.993182 0.57272,-0.593182 0.96137,0.961364 z m -1.53409,-2.106818 0,-6.013636 1.53409,1.53409 0,4.09091 -0.96137,0.961363 -0.57272,-0.572727 z m 8.57045,1.738636 0,5.993182 -1.51364,-1.534091 0,-4.090909 0.96137,-0.961364 0.55227,0.593182 z m -1.51364,-2.127272 0,-4.09091 1.51364,-1.53409 0,6.013636 -0.55227,0.572727 -0.96137,-0.961363 z m -0.10227,0.490909 0.77727,0.756818 -0.77727,0.756818 -5.33863,0 -0.75682,-0.756818 0.75682,-0.756818 5.33863,0 z"
         style="font-style:normal;font-variant:normal;font-weight:normal;font-stretch:normal;font-size:22.5px;line-height:125%;font-family:DS-Digital;-inkscape-font-specification:'DS-Digital, Normal';text-align:start;writing-mode:lr-tb;text-anchor:start;fill:#ffff00"
         id="path4338" />
      <path
         inkscape:connector-curvature="0"
         d="m 122.0934,53.248088 -0.55227,0.572727 -0.96136,-0.961363 0,-4.09091 1.51363,-1.53409 0,6.013636 z m -0.28636,-6.3 -1.51364,1.534091 -4.97045,0 -1.51364,-1.534091 7.99773,0 z m -6.75,5.911364 -0.96136,0.961363 -0.57273,-0.572727 0,-6.013636 1.53409,1.53409 0,4.09091 z m 7.03636,8.120454 -1.51363,-1.534091 0,-4.090909 0.96136,-0.961364 0.55227,0.593182 0,5.993182 z m -0.28636,0.286364 -7.99773,0 1.51364,-1.534091 4.97045,0 1.51364,1.534091 z m -6.75,-1.820455 -1.53409,1.534091 0,-5.993182 0.57273,-0.593182 0.96136,0.961364 0,4.090909 z"
         style="font-style:normal;font-variant:normal;font-weight:normal;font-stretch:normal;font-size:22.5px;line-height:125%;font-family:DS-Digital;-inkscape-font-specification:'DS-Digital, Normal';text-align:start;writing-mode:lr-tb;text-anchor:start;fill:#ffff00"
         id="path4340" />
    </g>
    <g
       style="font-style:normal;font-variant:normal;font-weight:normal;font-stretch:normal;font-size:22.5px;line-height:125%;font-family:DS-Digital;-inkscape-font-specification:'DS-Digital, Normal';text-align:start;letter-spacing:0px;word-spacing:0px;writing-mode:lr-tb;text-anchor:start;fill:#ff0000;fill-opacity:1;stroke:none;stroke-width:1px;stroke-linecap:butt;stroke-linejoin:miter;stroke-opacity:1"
       id="text4769-3-3-0-9-9">
      <path
         inkscape:connector-curvature="0"
         d="m 98.490885,103.31176 0,5.99318 -1.534091,-1.53409 0,-4.09091 0.961364,-0.96137 0.572727,0.59319 z m -1.534091,-2.12728 0,-4.090906 1.534091,-1.534091 0,6.013637 -0.572727,0.57273 -0.961364,-0.96137 z"
         style="font-style:normal;font-variant:normal;font-weight:normal;font-stretch:normal;font-size:22.5px;line-height:125%;font-family:DS-Digital;-inkscape-font-specification:'DS-Digital, Normal';text-align:start;writing-mode:lr-tb;text-anchor:start;fill:#ff0000"
         id="path4343" />
      <path
         inkscape:connector-curvature="0"
         d="m 110.47501,101.57312 -0.55227,0.57273 -0.96136,-0.96137 0,-4.090906 1.51363,-1.534091 0,6.013637 z m -0.28636,-6.300001 -1.51364,1.534091 -4.97045,0 -1.51364,-1.534091 7.99773,0 z m -6.75,5.911361 -0.96137,0.96137 -0.57272,-0.57273 0,-6.013637 1.53409,1.534091 0,4.090906 z m 7.03636,8.12046 -1.51363,-1.53409 0,-4.09091 0.96136,-0.96137 0.55227,0.59319 0,5.99318 z m -0.28636,0.28636 -7.99773,0 1.51364,-1.53409 4.97045,0 1.51364,1.53409 z m -6.75,-1.82045 -1.53409,1.53409 0,-5.99318 0.57272,-0.59319 0.96137,0.96137 0,4.09091 z"
         style="font-style:normal;font-variant:normal;font-weight:normal;font-stretch:normal;font-size:22.5px;line-height:125%;font-family:DS-Digital;-inkscape-font-specification:'DS-Digital, Normal';text-align:start;writing-mode:lr-tb;text-anchor:start;fill:#ff0000"
         id="path4345" />
      <path
         inkscape:connector-curvature="0"
         d="m 121.50528,101.57312 -0.55227,0.57273 -0.96136,-0.96137 0,-4.090906 1.51363,-1.534091 0,6.013637 z m -0.28636,-6.300001 -1.51364,1.534091 -4.97045,0 -1.51364,-1.534091 7.99773,0 z m -6.75,5.911361 -0.96136,0.96137 -0.57273,-0.57273 0,-6.013637 1.53409,1.534091 0,4.090906 z m 7.03636,8.12046 -1.51363,-1.53409 0,-4.09091 0.96136,-0.96137 0.55227,0.59319 0,5.99318 z m -0.28636,0.28636 -7.99773,0 1.51364,-1.53409 4.97045,0 1.51364,1.53409 z m -6.75,-1.82045 -1.53409,1.53409 0,-5.99318 0.57273,-0.59319 0.96136,0.96137 0,4.09091 z"
         style="font-style:normal;font-variant:normal;font-weight:normal;font-stretch:normal;font-size:22.5px;line-height:125%;font-family:DS-Digital;-inkscape-font-specification:'DS-Digital, Normal';text-align:start;writing-mode:lr-tb;text-anchor:start;fill:#ff0000"
         id="path4347" />
    </g>
    <g
       style="font-style:normal;font-variant:normal;font-weight:normal;font-stretch:normal;font-size:30px;line-height:125%;font-family:DS-Digital;-inkscape-font-specification:'DS-Digital, Normal';text-align:start;letter-spacing:0px;word-spacing:0px;writing-mode:lr-tb;text-anchor:start;display:inline;fill:#000000;fill-opacity:1;stroke:none;stroke-width:1px;stroke-linecap:butt;stroke-linejoin:miter;stroke-opacity:1"
       id="text6300">
      <path
         inkscape:connector-curvature="0"
         d="m 96.274659,116.5055 -1.009091,1.03637 -2.181818,0 -1.009091,-1.03637 1.009091,-1.00909 2.181818,0 1.009091,1.00909 z m 0,6.62727 -1.009091,1.0091 -2.181818,0 -1.009091,-1.0091 1.009091,-1.03636 2.181818,0 1.009091,1.03636 z m -5.590909,-1.41818 1.009091,0.98182 1.036363,-0.98182 0,-3.79091 -1.036363,-1.03636 -1.009091,1.03636 0,3.79091 z m 4.936363,0 0,-3.79091 1.036364,-1.03636 1.009091,1.03636 0,3.79091 -1.009091,0.98182 -1.036364,-0.98182 z m 8.536367,5.42728 -1.00909,1.03636 -2.15455,0 -1.036363,-1.03636 1.036363,-1.0091 2.15455,0 1.00909,1.0091 z m 0,6.62727 -1.00909,1.00909 -2.15455,0 -1.036363,-1.00909 1.036363,-1.03637 2.15455,0 1.00909,1.03637 z m -5.590912,-1.41818 1.009091,0.98181 1.036361,-0.98181 0,-3.79091 -1.036361,-1.03637 -1.009091,1.03637 0,3.79091 z m 4.963632,0 0,-3.79091 1.0091,-1.03637 1.00909,1.03637 0,3.79091 -1.00909,0.98181 -1.0091,-0.98181 z m -4.854541,-6.3 -4.936364,8.61818 -0.763636,-2.78182 3.709091,-6.38182 1.718182,-0.49091 0.272727,1.03637 z m -0.354546,-3.43637 3.681817,-6.38182 2.80909,-0.73636 -4.990907,8.56364 -1.036363,0.3 -0.463637,-1.74546 z"
         style="font-style:normal;font-variant:normal;font-weight:normal;font-stretch:normal;font-size:30px;line-height:125%;font-family:DS-Digital;-inkscape-font-specification:'DS-Digital, Normal';text-align:start;writing-mode:lr-tb;text-anchor:start;fill:#ffffff"
         id="path4350" />
    </g>
  </g>
</svg>
